<!--?xml version="1.0" encoding="utf-8"?-->
<!-- Generator: Adobe Illustrator 15.1.0, SVG Export Plug-In . SVG Version: 6.00 Build 0)  -->

<svg version="1.1" id="_x32_" xmlns="http://www.w3.org/2000/svg" xmlns:xlink="http://www.w3.org/1999/xlink" x="0px" y="0px" width="512px" height="512px" viewBox="0 0 512 512" style="width: 512px; height: 512px; opacity: 1;" xml:space="preserve">
<style type="text/css">

	.st0{fill:#4B4B4B;}

</style>
<g>
	<path class="st0" d="M462.313,333.641H360.281c-9.516,0.016-18.016,3.828-24.266,10.047c-6.234,6.25-10.047,14.781-10.047,24.281
		s3.813,18.031,10.047,24.266c6.25,6.234,14.75,10.047,24.266,10.047h102.031c4.406,0,7.984-3.563,7.984-7.969v-52.688
		C470.297,337.219,466.719,333.641,462.313,333.641z M360.875,379.406c-6.328,0-11.438-5.125-11.438-11.438
		s5.109-11.438,11.438-11.438c6.313,0,11.438,5.125,11.438,11.438S367.188,379.406,360.875,379.406z" style="fill: rgb(255, 255, 255);"></path>
	<path class="st0" d="M154.141,169.953l46.25-40.063c-3.375,12.469-2.469,26.547,2.609,40.063h73.703
		c1.422-1.625,2.406-3.172,3.031-4.859c0.984-2.672,0.563-5.063-1.328-7.25c-1.344-1.625-2.891-2.391-4.578-2.531
		c-1.766-0.063-3.813,0.688-6.266,2.391l-7.891,5.703c-4.719,3.375-9.078,5.063-13.172,5.063c-4.078,0.078-7.875-1.906-11.406-5.969
		c-1.891-2.25-3.172-4.594-3.797-7.125c-0.563-2.531-0.625-5.063-0.141-7.672c0.563-2.531,1.625-5.063,3.172-7.453
		c0.641-1,1.406-1.969,2.188-2.891l-5.078-5.922l8.172-7.031l4.984,5.766c2.047-1.484,4.172-2.734,6.281-3.734
		c3.516-1.688,8.578-1.969,8.578-1.969c0.563-0.141,1.141,0,1.547,0.344c0.438,0.359,0.641,0.922,0.641,1.5l-0.484,7.25
		c-0.078,0.781-0.563,1.406-1.344,1.609c0,0-3.656,0.359-6.125,1.484c-2.391,1.188-4.641,2.75-6.828,4.641
		c-2.828,2.469-4.5,4.797-4.859,7.047c-0.422,2.25,0.141,4.281,1.625,6.063c1.328,1.531,2.875,2.313,4.578,2.313
		c1.672,0,3.797-0.844,6.25-2.609l6.984-4.984c5.125-3.672,9.781-5.563,14.078-5.563c4.281,0,8.172,2.031,11.609,6.047
		c2.125,2.453,3.453,4.922,4.078,7.609c0.641,2.672,0.578,5.344,0,8.016c-0.344,1.547-0.984,3.172-1.75,4.719h34.359
		c0.063-16.828-6.484-34.859-19.5-49.922c-17.047-19.703-40.766-29.063-61.828-26.609l58.578-50.609
		c9.938,9.344,25,10.844,36.625,3.797L381.75,97.5c-8.656,10.5-9.359,25.625-1.469,36.844l-41.125,35.609h28.453l58-50.203
		L321.984,0L125.625,169.953H154.141z" style="fill: rgb(255, 255, 255);"></path>
	<path class="st0" d="M313.453,101.531c-3.328,2.875-3.688,7.938-0.797,11.281s7.953,3.703,11.297,0.813
		c3.344-2.906,3.703-7.953,0.797-11.281C321.859,98.984,316.813,98.625,313.453,101.531z" style="fill: rgb(255, 255, 255);"></path>
	<path class="st0" d="M304.844,367.969c0.016-30.625,24.813-55.438,55.438-55.438h91.594v-65.906
		c0-27.453-21.125-49.938-48.031-52.156v-0.203H107.031c-7.859,0-14.234-6.359-14.234-14.234c0-5.75,3.906-9.406,8.359-12.969
		l1.172-1.25l59.563-51.625h-36.406c-45.016,0-81.625,35.531-83.578,80.078h-0.203v3.703v60.953v169.297
		C41.703,474.5,79.219,512,125.484,512h274.031c28.922,0,52.359-23.438,52.359-52.375v-36.219h-91.594
		C329.656,423.406,304.859,398.594,304.844,367.969z" style="fill: rgb(255, 255, 255);"></path>
</g>
</svg>
